<?xml version="1.0" encoding="utf-8"?>
<!-- Generator: Adobe Illustrator 22.0.0, SVG Export Plug-In . SVG Version: 6.00 Build 0)  -->
<svg version="1.1" id="Layer_1" xmlns="http://www.w3.org/2000/svg" xmlns:xlink="http://www.w3.org/1999/xlink" x="0px" y="0px"
	 viewBox="0 0 781.9 231.5" style="enable-background:new 0 0 781.9 231.5;" xml:space="preserve">
<style type="text/css">
	.st0{fill:#FF2B06;}
	.st1{fill:#F5F5F5;}
	.st2{font-family:'Helvetica';}
	.st3{font-size:146.9047px;}
</style>
<rect x="0" width="783.7" height="231.5"/>
<g>
	<g>
		<path class="st0" d="M29.8,27.4H0.2V0.3H92v27.1H62.4v78.7H29.8V27.4z"/>
		<path class="st0" d="M97.1,0.3h89.2v27.1h-56.6v13.2h56.6v25.2h-56.6V79h56.6v27.1H97.1V0.3z"/>
		<path class="st0" d="M191.8,0.3h53.5C280.5,0.3,293,26.4,293,53c0,32.5-17.2,53.1-54.1,53.1h-47.1V0.3z M224.4,79h12.8
			c20.3,0,23.3-16.5,23.3-26.4c0-6.7-2.1-25.2-25.7-25.2h-10.4V79z"/>
	</g>
	<g>
		<g>
			<path class="st0" d="M339.9,65.3l-9.9-16.5l-9.7,16.5h-23.9L319,32L297.2,0.1h23.9l8.8,15.8L339,0.1h23.9L341.1,32l22.7,33.3
				H339.9z"/>
		</g>
	</g>
</g>
<text transform="matrix(1 0 0 1 -2.214355e-04 222.4873)" class="st1 st2 st3">Amstelveen</text>
</svg>
