<?xml version="1.0" encoding="utf-8"?>
<!-- Generator: Adobe Illustrator 22.0.1, SVG Export Plug-In . SVG Version: 6.00 Build 0)  -->
<svg version="1.1" id="Laag_1" xmlns="http://www.w3.org/2000/svg" xmlns:xlink="http://www.w3.org/1999/xlink" x="0px" y="0px"
	 viewBox="0 0 188.8 113.8" style="enable-background:new 0 0 188.8 113.8;" xml:space="preserve">
<style type="text/css">
	.st0{clip-path:url(#SVGID_2_);fill:#1D1D1B;}
	.st1{clip-path:url(#SVGID_2_);fill:#9C9B9B;}
	.st2{fill:#3F84C5;}
</style>
<g>
	<defs>
		<rect id="SVGID_1_" x="32" y="38.1" width="125.5" height="38.8"/>
	</defs>
	<clipPath id="SVGID_2_">
		<use xlink:href="#SVGID_1_"  style="overflow:visible;"/>
	</clipPath>
	<path class="st0" d="M148.7,46.6l-0.7,3.5h-2.2l-0.7,4h2.2l-1.5,8c-0.2,0.7-0.3,1.9-0.3,2.8c0,2.9,1.6,4.7,4.9,4.7
		c1.1,0,2.4,0,3.3-0.3l0.7-4.3c-0.5,0.1-1.1,0.1-1.4,0.1c-0.9,0-1.6-0.4-1.6-1.7c0-0.3,0-0.8,0.1-1.3l1.5-8h3.6l0.7-4h-3.6l1-5.2
		L148.7,46.6z M134.3,58c0.4-1.8,1.4-3.3,2.4-3.3c1.2,0,1.3,1.3,1.3,2.3c0,2.9-1.4,8.5-3.8,8.5c-0.5,0-0.8-0.2-1.2-0.4L134.3,58z
		 M130.8,76.9l1.4-7.6h0.1c0.5,0.3,1.5,0.4,2.4,0.4c5.6,0,9.2-7.1,9.2-13.7c0-3-0.6-6.2-4.4-6.2c-1.7,0-3.6,1.1-4.7,3h-0.1l0.2-2.7
		H130c-0.3,2-0.6,4.1-1,6.2l-4,20.7H130.8z M123.1,69.4l3.7-19.3H121l-3.7,19.3H123.1z M110.2,46.6l-0.7,3.5h-2.2l-0.7,4h2.2l-1.5,8
		c-0.2,0.7-0.3,1.9-0.3,2.8c0,2.9,1.6,4.7,4.9,4.7c1.1,0,2.4,0,3.3-0.3l0.7-4.3c-0.5,0.1-1.1,0.1-1.4,0.1c-0.9,0-1.6-0.4-1.6-1.7
		c0-0.3,0-0.8,0.1-1.3l1.5-8h3.6l0.7-4h-3.6l1-5.2L110.2,46.6z M92.1,68.7c0.7,0.5,2.3,0.9,4.2,0.9c4.8,0,7.8-2.5,7.8-6.8
		c0-1.3-0.5-3.3-2.9-5.1c-0.9-0.7-1.3-1.2-1.3-1.9c0-1.1,0.9-1.8,2.3-1.8c0.8,0,1.8,0.3,2.3,0.6l1.2-4.2c-0.7-0.4-2-0.7-3.9-0.7
		c-4.7,0-7.6,3.1-7.6,6.7c0,1.6,0.6,3.3,2.4,4.7c1.5,1.1,1.8,1.7,1.8,2.5c0,0.9-0.6,1.6-1.8,1.7c-1.3,0-2.3-0.3-3.1-0.7L92.1,68.7z"
		/>
	<path class="st1" d="M85.8,68.5c-3,0-3.8-5.1-3.8-8.8c0-3.8,0.7-8.8,3.8-8.8c3,0,3.8,5.1,3.8,8.8C89.6,63.5,88.9,68.5,85.8,68.5
		L85.8,68.5z M85.7,69.7c2.8,0,5.2-2.7,5.2-9.9c0-7.3-2.4-9.9-4.9-9.9c-2.8,0-5.3,2.8-5.3,9.9C80.7,67,83.1,69.7,85.7,69.7
		L85.7,69.7z M76.6,69.4h1.2V50h-1.2V69.4z M65.8,51.1c0.3-0.1,0.8-0.1,1.2-0.1c3.6,0,5.4,2.9,5.4,8.3c0,7.4-2.9,9.1-5.7,9.1
		c-0.2,0-0.5,0-1-0.1V51.1z M64.6,69.3c0.6,0.1,1.4,0.2,2.1,0.2c1.9,0,3.8-0.7,5-2.2c1-1.2,2.1-3.4,2.1-8.2c0-4.2-1.3-6.7-2.7-7.9
		c-1-0.8-2.2-1.3-4-1.3c-0.9,0-1.7,0.1-2.4,0.4V69.3z M52.2,50v13.5c0,4.8,2.1,6.1,4.3,6.1c2.3,0,4.5-1.5,4.5-6.5V50h-1.2v13.3
		c0,3.7-1.2,5.3-3.2,5.3c-1.8,0-3.1-1.4-3.1-5.3V50H52.2z M45,69.4h1.2V51.1h3.6V50h-8.5v1.1H45V69.4z M32,68.7
		c0.5,0.4,1.8,0.9,3,0.9c2.7,0,4.8-2,4.8-5.2c0-2.2-1.1-3.9-3.3-5.6c-1.7-1.3-3-2.2-3-4.6c0-1.5,1-3.3,3.1-3.3c1,0,1.8,0.3,2.2,0.7
		l0.5-1.1c-0.4-0.3-1.4-0.7-2.5-0.7c-2.5,0-4.5,1.9-4.5,4.7c0,3,2.8,4.6,3.7,5.4c1.4,1.2,2.6,2.5,2.6,4.6c0,2.4-1.4,4-3.6,4
		c-0.9,0-2-0.4-2.5-0.8L32,68.7z"/>
</g>
<polygon class="st2" points="124.4,38.1 122.4,38.7 123.4,41.5 120.5,40.8 120.1,42.8 123,43.4 121,45.5 122.5,46.9 124.4,44.7 
	125.2,47.5 127.2,46.9 126.2,44.1 129.1,44.8 129.5,42.8 126.6,42.2 128.7,40.1 127.2,38.7 125.2,40.9 "/>
</svg>
